<?xml version="1.0" encoding="UTF-8" standalone="no"?>
<svg
   xmlns:dc="http://purl.org/dc/elements/1.1/"
   xmlns:cc="http://creativecommons.org/ns#"
   xmlns:rdf="http://www.w3.org/1999/02/22-rdf-syntax-ns#"
   xmlns:svg="http://www.w3.org/2000/svg"
   xmlns="http://www.w3.org/2000/svg"
   xmlns:sodipodi="http://sodipodi.sourceforge.net/DTD/sodipodi-0.dtd"
   xmlns:inkscape="http://www.inkscape.org/namespaces/inkscape"
   width="22.576101mm"
   height="100.7509mm"
   viewBox="0 0 22.576101 100.7509"
   version="1.1"
   id="svg8"
   inkscape:version="1.0.1 (3bc2e813f5, 2020-09-07)"
   sodipodi:docname="ArrowOnly.svg">
  <defs
     id="defs2" />
  <sodipodi:namedview
     id="base"
     pagecolor="#ffffff"
     bordercolor="#666666"
     borderopacity="1.0"
     inkscape:pageopacity="0.0"
     inkscape:pageshadow="2"
     inkscape:zoom="1.979899"
     inkscape:cx="282.10226"
     inkscape:cy="204.30394"
     inkscape:document-units="mm"
     inkscape:current-layer="g106"
     inkscape:document-rotation="0"
     showgrid="false"
     inkscape:window-width="2138"
     inkscape:window-height="1040"
     inkscape:window-x="66"
     inkscape:window-y="0"
     inkscape:window-maximized="0"
     fit-margin-top="0"
     fit-margin-left="0"
     fit-margin-right="0"
     fit-margin-bottom="0" />
  <metadata
     id="metadata5">
    <rdf:RDF>
      <cc:Work
         rdf:about="">
        <dc:format>image/svg+xml</dc:format>
        <dc:type
           rdf:resource="http://purl.org/dc/dcmitype/StillImage" />
        <dc:title></dc:title>
      </cc:Work>
    </rdf:RDF>
  </metadata>
  <g
     inkscape:label="Layer 1"
     inkscape:groupmode="layer"
     id="layer1"
     transform="translate(-2.7062644,-4.8643279)">
    <g
       id="g106"
       transform="matrix(0.26458333,0,0,0.26458333,29.785556,69.094974)">
      <path
         style="fill:#e6e9ed"
         d="m -27.691935,-232.1055 h -63.999 c -2.828,0 -5.531,1.125 -7.531,3.125 -1.999995,2 -3.124995,4.719 -3.124995,7.547 v 74.67 c 0,2.953 1.219,5.781 3.374995,7.797 l 22.859,21.328 c 1.968,1.844 4.578,2.875 7.281,2.875 h 17.672 c 2.656,0 5.218,-0.984 7.187,-2.781 l 23.453,-21.328 c 2.234,-2.031 3.5,-4.891 3.5,-7.891 v -74.67 c -0.001,-5.891 -4.782,-10.672 -10.672,-10.672 z"
         id="path30" />
      <path
         style="fill:#ffce54;stroke-width:1.11174"
         d="m -59.769935,92.376435 c -5.891,0 -10.672,-5.90921 -10.672,-13.19035 V -229.59091 c 0,-7.27991 4.781,-13.17059 10.672,-13.17059 5.891,0 10.672,5.89068 10.672,13.17059 V 79.186085 c 0,7.28114 -4.781,13.19035 -10.672,13.19035 z"
         id="path32" />
      <g
         id="g42" />
      <g
         id="g44" />
      <g
         id="g46" />
      <g
         id="g48" />
      <g
         id="g50" />
      <g
         id="g52" />
      <g
         id="g54" />
      <g
         id="g56" />
      <g
         id="g58" />
      <g
         id="g60" />
      <g
         id="g62" />
      <g
         id="g64" />
      <g
         id="g66" />
      <g
         id="g68" />
      <g
         id="g70" />
      <path
         style="fill:#e6e9ed;stroke-width:0.37535"
         d="m -51.734225,72.115885 h -16.05187 c -0.70931,0 -1.38726,0.63194 -1.88889,1.75537 -0.50163,1.12345 -0.7838,2.65077 -0.7838,4.23932 v 41.943665 c 0,1.65877 0.30575,3.24732 0.8465,4.37974 l 5.73337,11.98039 c 0.4936,1.03581 1.14823,1.61493 1.82618,1.61493 h 4.43239 c 0.66617,0 1.30874,-0.55272 1.80261,-1.56214 l 5.88235,-11.98037 c 0.56032,-1.14086 0.87784,-2.74738 0.87784,-4.43255 V 78.110575 c -2.4e-4,-3.3091 -1.19939,-5.99469 -2.67668,-5.99469 z"
         id="path30-8" />
    </g>
  </g>
</svg>
